<svg xmlns="http://www.w3.org/2000/svg" width="960" height="280" viewBox="0 0 960 280" role="img" aria-labelledby="title desc">
  <title id="title">Unexposed Image Gen</title>
  <desc id="desc">A simple banner for the Unexposed image generation package.</desc>
  <rect width="960" height="280" fill="#111827"/>
  <path d="M0 228C132 188 245 209 341 196C460 180 515 106 641 92C755 80 831 128 960 96V280H0Z" fill="#164E63"/>
  <path d="M0 184C114 148 225 156 330 142C442 127 528 70 642 65C772 60 845 99 960 68" fill="none" stroke="#67E8F9" stroke-width="3" opacity=".75"/>
  <g fill="#F9FAFB">
    <text x="72" y="118" font-family="Inter, ui-sans-serif, system-ui, -apple-system, BlinkMacSystemFont, Segoe UI, sans-serif" font-size="52" font-weight="800">Unexposed Image Gen</text>
    <text x="75" y="160" font-family="Inter, ui-sans-serif, system-ui, -apple-system, BlinkMacSystemFont, Segoe UI, sans-serif" font-size="24" fill="#CFFAFE">Sealed image generation tasks for Unexposed.</text>
  </g>
  <g transform="translate(704 72)">
    <rect x="0" y="0" width="184" height="132" rx="18" fill="#F9FAFB" opacity=".95"/>
    <path d="M38 48L68 78L38 108" fill="none" stroke="#111827" stroke-width="12" stroke-linecap="round" stroke-linejoin="round"/>
    <path d="M91 108H146" fill="none" stroke="#164E63" stroke-width="12" stroke-linecap="round"/>
  </g>
</svg>
